<svg viewBox="0 0 1498 400" xmlns="http://www.w3.org/2000/svg"><g><g><g><g><g><line x1="51.52000045776367" y1="335.9644436306424" x2="46.52000045776367" y2="335.9644436306424" style="visibility: inherit;" fill="rgb(0, 0, 0)" stroke="rgb(204, 204, 204)" stroke-width="1px"></line><line x1="51.52000045776367" y1="293.96888817681213" x2="46.52000045776367" y2="293.96888817681213" style="visibility: inherit;" fill="rgb(0, 0, 0)" stroke="rgb(204, 204, 204)" stroke-width="1px"></line><line x1="51.52000045776367" y1="251.97333272298178" x2="46.52000045776367" y2="251.97333272298178" style="visibility: inherit;" fill="rgb(0, 0, 0)" stroke="rgb(204, 204, 204)" stroke-width="1px"></line><line x1="51.52000045776367" y1="209.9777772691515" x2="46.52000045776367" y2="209.9777772691515" style="visibility: inherit;" fill="rgb(0, 0, 0)" stroke="rgb(204, 204, 204)" stroke-width="1px"></line><line x1="51.52000045776367" y1="167.98222181532122" x2="46.52000045776367" y2="167.98222181532122" style="visibility: inherit;" fill="rgb(0, 0, 0)" stroke="rgb(204, 204, 204)" stroke-width="1px"></line><line x1="51.52000045776367" y1="125.9866663614909" x2="46.52000045776367" y2="125.9866663614909" style="visibility: inherit;" fill="rgb(0, 0, 0)" stroke="rgb(204, 204, 204)" stroke-width="1px"></line><line x1="51.52000045776367" y1="83.99111090766053" x2="46.52000045776367" y2="83.99111090766053" style="visibility: inherit;" fill="rgb(0, 0, 0)" stroke="rgb(204, 204, 204)" stroke-width="1px"></line><line x1="51.52000045776367" y1="41.99555545383032" x2="46.52000045776367" y2="41.99555545383032" style="visibility: inherit;" fill="rgb(0, 0, 0)" stroke="rgb(204, 204, 204)" stroke-width="1px"></line><line x1="51.52000045776367" y1="0" x2="46.52000045776367" y2="0" style="visibility: inherit;" fill="rgb(0, 0, 0)" stroke="rgb(204, 204, 204)" stroke-width="1px"></line></g><g transform="translate(41.52000045776367, 0)"><text style="text-anchor: end; visibility: inherit; font-family: &quot;Helvetica Neue&quot;, sans-serif; font-size: 12px; font-weight: 200;" x="0" y="335.9644436306424" dx="0em" dy="0.3em" fill="rgb(50, 49, 63)" stroke="none" stroke-width="1px">0.16</text><text style="text-anchor: end; visibility: inherit; font-family: &quot;Helvetica Neue&quot;, sans-serif; font-size: 12px; font-weight: 200;" x="0" y="293.96888817681213" dx="0em" dy="0.3em" fill="rgb(50, 49, 63)" stroke="none" stroke-width="1px">0.18</text><text style="text-anchor: end; visibility: inherit; font-family: &quot;Helvetica Neue&quot;, sans-serif; font-size: 12px; font-weight: 200;" x="0" y="251.97333272298178" dx="0em" dy="0.3em" fill="rgb(50, 49, 63)" stroke="none" stroke-width="1px">0.2</text><text style="text-anchor: end; visibility: inherit; font-family: &quot;Helvetica Neue&quot;, sans-serif; font-size: 12px; font-weight: 200;" x="0" y="209.9777772691515" dx="0em" dy="0.3em" fill="rgb(50, 49, 63)" stroke="none" stroke-width="1px">0.22</text><text style="text-anchor: end; visibility: inherit; font-family: &quot;Helvetica Neue&quot;, sans-serif; font-size: 12px; font-weight: 200;" x="0" y="167.98222181532122" dx="0em" dy="0.3em" fill="rgb(50, 49, 63)" stroke="none" stroke-width="1px">0.24</text><text style="text-anchor: end; visibility: inherit; font-family: &quot;Helvetica Neue&quot;, sans-serif; font-size: 12px; font-weight: 200;" x="0" y="125.9866663614909" dx="0em" dy="0.3em" fill="rgb(50, 49, 63)" stroke="none" stroke-width="1px">0.26</text><text style="text-anchor: end; visibility: inherit; font-family: &quot;Helvetica Neue&quot;, sans-serif; font-size: 12px; font-weight: 200;" x="0" y="83.99111090766053" dx="0em" dy="0.3em" fill="rgb(50, 49, 63)" stroke="none" stroke-width="1px">0.28</text><text style="text-anchor: end; visibility: inherit; font-family: &quot;Helvetica Neue&quot;, sans-serif; font-size: 12px; font-weight: 200;" x="0" y="41.99555545383032" dx="0em" dy="0.3em" fill="rgb(50, 49, 63)" stroke="none" stroke-width="1px">0.3</text><text style="text-anchor: end; visibility: hidden; font-family: &quot;Helvetica Neue&quot;, sans-serif; font-size: 12px; font-weight: 200;" x="0" y="0" dx="0em" dy="0.3em" fill="rgb(50, 49, 63)" stroke="none" stroke-width="1px">0.32</text></g><line x1="51.52000045776367" y1="0" x2="51.52000045776367" y2="377.95999908447266" fill="rgb(0, 0, 0)" stroke="rgb(204, 204, 204)" stroke-width="1px"></line></g></g><g transform="translate(51, 0)" clip-path="url(#clip_0)"><clipPath id="clip_0"><rect width="1446" height="377"></rect></clipPath><g><g><g><line x1="0" y1="0" x2="0" y2="377.95999908447266" fill="rgb(0, 0, 0)" stroke="rgb(60, 60, 60)" stroke-width="1px" opacity="0.25"></line><line x1="144.64799995422365" y1="0" x2="144.64799995422365" y2="377.95999908447266" fill="rgb(0, 0, 0)" stroke="rgb(60, 60, 60)" stroke-width="1px" opacity="0.25"></line><line x1="289.2959999084473" y1="0" x2="289.2959999084473" y2="377.95999908447266" fill="rgb(0, 0, 0)" stroke="rgb(60, 60, 60)" stroke-width="1px" opacity="0.25"></line><line x1="433.94399986267086" y1="0" x2="433.94399986267086" y2="377.95999908447266" fill="rgb(0, 0, 0)" stroke="rgb(60, 60, 60)" stroke-width="1px" opacity="0.25"></line><line x1="578.5919998168946" y1="0" x2="578.5919998168946" y2="377.95999908447266" fill="rgb(0, 0, 0)" stroke="rgb(60, 60, 60)" stroke-width="1px" opacity="0.25"></line><line x1="723.2399997711182" y1="0" x2="723.2399997711182" y2="377.95999908447266" fill="rgb(0, 0, 0)" stroke="rgb(60, 60, 60)" stroke-width="1px" opacity="0.25"></line><line x1="867.8879997253417" y1="0" x2="867.8879997253417" y2="377.95999908447266" fill="rgb(0, 0, 0)" stroke="rgb(60, 60, 60)" stroke-width="1px" opacity="0.25"></line><line x1="1012.5359996795654" y1="0" x2="1012.5359996795654" y2="377.95999908447266" fill="rgb(0, 0, 0)" stroke="rgb(60, 60, 60)" stroke-width="1px" opacity="0.25"></line><line x1="1157.1839996337892" y1="0" x2="1157.1839996337892" y2="377.95999908447266" fill="rgb(0, 0, 0)" stroke="rgb(60, 60, 60)" stroke-width="1px" opacity="0.25"></line><line x1="1301.8319995880126" y1="0" x2="1301.8319995880126" y2="377.95999908447266" fill="rgb(0, 0, 0)" stroke="rgb(60, 60, 60)" stroke-width="1px" opacity="0.25"></line><line x1="1446.4799995422363" y1="0" x2="1446.4799995422363" y2="377.95999908447266" fill="rgb(0, 0, 0)" stroke="rgb(60, 60, 60)" stroke-width="1px" opacity="0.25"></line></g><g><line x1="0" y1="335.9644436306424" x2="1446.4799995422363" y2="335.9644436306424" fill="rgb(0, 0, 0)" stroke="rgb(60, 60, 60)" stroke-width="1px" opacity="0.25"></line><line x1="0" y1="293.96888817681213" x2="1446.4799995422363" y2="293.96888817681213" fill="rgb(0, 0, 0)" stroke="rgb(60, 60, 60)" stroke-width="1px" opacity="0.25"></line><line x1="0" y1="251.97333272298178" x2="1446.4799995422363" y2="251.97333272298178" fill="rgb(0, 0, 0)" stroke="rgb(60, 60, 60)" stroke-width="1px" opacity="0.25"></line><line x1="0" y1="209.9777772691515" x2="1446.4799995422363" y2="209.9777772691515" fill="rgb(0, 0, 0)" stroke="rgb(60, 60, 60)" stroke-width="1px" opacity="0.25"></line><line x1="0" y1="167.98222181532122" x2="1446.4799995422363" y2="167.98222181532122" fill="rgb(0, 0, 0)" stroke="rgb(60, 60, 60)" stroke-width="1px" opacity="0.25"></line><line x1="0" y1="125.9866663614909" x2="1446.4799995422363" y2="125.9866663614909" fill="rgb(0, 0, 0)" stroke="rgb(60, 60, 60)" stroke-width="1px" opacity="0.25"></line><line x1="0" y1="83.99111090766053" x2="1446.4799995422363" y2="83.99111090766053" fill="rgb(0, 0, 0)" stroke="rgb(60, 60, 60)" stroke-width="1px" opacity="0.25"></line><line x1="0" y1="41.99555545383032" x2="1446.4799995422363" y2="41.99555545383032" fill="rgb(0, 0, 0)" stroke="rgb(60, 60, 60)" stroke-width="1px" opacity="0.25"></line><line x1="0" y1="0" x2="1446.4799995422363" y2="0" fill="rgb(0, 0, 0)" stroke="rgb(60, 60, 60)" stroke-width="1px" opacity="0.25"></line></g></g></g><g><g><line x1="0" y1="671.9288872612848" x2="1446.4799995422363" y2="671.9288872612848" fill="rgb(0, 0, 0)" stroke="rgb(153, 153, 153)" stroke-width="1.5px"></line></g></g><g><g><line x1="-144792.64795417784" y1="0" x2="-144792.64795417784" y2="377.95999908447266" fill="rgb(0, 0, 0)" stroke="rgb(153, 153, 153)" stroke-width="1.5px"></line></g></g><g><g><g><g><g><path style="fill: none;" stroke="rgb(255, 112, 67)" stroke-width="2px" d="M159.112799949646,141.89645655857822L173.57759994506836,74.86204406952851L188.04239994049072,86.96976689126978L202.5071999359131,89.46522032713705L216.97199993133543,168.0020077425698L231.43679992675783,114.57356789373216L245.9015999221802,127.35238924528508L260.3663999176025,135.0542472751249L274.83119991302493,115.86861164902126L289.2959999084473,104.70258509957768L303.7607999038696,161.25752434925718L318.225599899292,130.8044432210459L332.69039989471435,88.11448018753305L347.1551998901367,204.59931402032439L361.6199998855591,187.06031622923456L376.08479988098145,220.83263625272116L390.5495998764038,250.1276716810213L405.0143998718262,237.31909405615735L419.4791998672485,229.72378428524434L433.94399986267086,313.63315214475574L448.40879985809323,284.3300160271072L462.87359985351566,190.82963614190768L477.338399848938,226.95689028293904L491.8031998443604,266.89997690152927L506.2679998397827,297.49223803621214L520.732799835205,274.9937317537036L535.1975998306274,216.10749950357462L549.6623998260499,291.43981448177306L564.1271998214722,213.2577774870751L578.5919998168946,127.63628044539496L593.0567998123169,147.32196250783173L607.5215998077392,188.5767663898195L621.9863998031616,208.17945605732174L636.451199798584,246.6210082934144L650.9159997940063,205.52255149462385L665.3807997894287,216.2842469139956L679.8455997848511,136.38950566279598L694.3103997802734,224.1548949129201L708.7751997756958,187.05344479494698L708.7751997756958,246.21375459388182L723.2399997711182,182.33838868981832L737.7047997665405,250.41397346680048L752.1695997619629,275.4253739481025L766.6343997573853,188.99892185424795L781.0991997528076,159.53094668013688L795.56399974823,191.78430424009406L810.0287997436524,172.26999142011047L824.4935997390746,155.99113861067815L838.958399734497,182.15102890184735L853.4231997299194,197.24240707887455L867.8879997253417,248.7853779210837L882.3527997207641,282.9550669322509L896.8175997161865,259.5897745107146L911.282399711609,237.14830447608227L925.7471997070313,264.17553285070784L940.2119997024537,232.17620116826228L954.676799697876,213.88057007092965L969.1415996932984,174.12298926169683L983.6063996887208,194.09789952657928L998.071199684143,201.5274366452297L1012.5359996795654,189.1448876524978L1027.0007996749878,101.41992379362347L1041.46559967041,198.95762395470052L1055.9303996658325,191.88516738965026L1070.3951996612548,220.0893317313575L1084.8599996566772,247.91624130534564L1099.3247996520997,203.9645218773929L1113.789599647522,161.51423310510512L1128.2543996429445,208.1701285107581L1142.7191996383667,148.62537409596948L1157.1839996337892,133.42356301731547L1171.6487996292115,198.25231316169553L1186.1135996246337,169.80601261944358L1200.5783996200562,215.62594840065708L1215.0431996154784,217.2239294396219L1229.507999610901,171.56302011769282L1243.9727996063232,76.29920648688932L1258.4375996017457,148.37640231727406L1272.902399597168,197.46742862550497L1287.3671995925904,249.42888922617504L1301.8319995880126,254.1323605862263L1316.2967995834351,281.2725907523138L1330.7615995788574,244.5744369811765" fill="none"></path></g></g></g></g><g opacity="0.2"><g><g><g><path style="fill: none;" stroke="rgb(255, 112, 67)" stroke-width="2px" d="M159.112799949646,141.89645655857822L173.57759994506836,34.64139657609866L188.04239994049072,98.59318080014157L202.5071999359131,92.39987356771678L216.97199993133543,270.5396373921588L231.43679992675783,40.66280134444412L245.9015999221802,145.62630823914702L260.3663999176025,146.28363022046835L274.83119991302493,87.57352571838248L289.2959999084473,88.12233700705235L303.7607999038696,245.57698408722538L318.225599899292,85.29054585142092L332.69039989471435,24.218925773447495L347.1551998901367,379.09835885368216L361.6199998855591,160.7724359761146L376.08479988098145,271.46729743129697L390.5495998764038,294.0578281462688L405.0143998718262,218.10947971533278L419.4791998672485,218.33197669787162L433.94399986267086,439.48953428543535L448.40879985809323,240.37691890426098L462.87359985351566,50.58214298393614L477.338399848938,281.14705822487423L491.8031998443604,326.81413366547395L506.2679998397827,343.38041230153766L520.732799835205,241.24606827579296L535.1975998306274,127.77830180211004L549.6623998260499,404.43817129622255L564.1271998214722,95.98479401173381L578.5919998168946,-0.7959177954255665L593.0567998123169,176.8504790735007L607.5215998077392,250.45896400447612L621.9863998031616,237.58348821840772L636.451199798584,304.2833338940638L650.9159997940063,143.87486806271698L665.3807997894287,232.42678976555143L679.8455997848511,16.54739502209918L694.3103997802734,355.8029779733817L708.7751997756958,131.40126982463465L708.7751997756958,334.95421909457775L723.2399997711182,86.52533996180097L737.7047997665405,352.52735055037385L752.1695997619629,312.9424746520013L766.6343997573853,59.35924375089792L781.0991997528076,115.32898392662793L795.56399974823,240.16434057500084L810.0287997436524,142.99852219196072L824.4935997390746,131.57285939744338L838.958399734497,221.39086433772005L853.4231997299194,219.8794743441107L867.8879997253417,326.0998341837725L882.3527997207641,334.20960044875306L896.8175997161865,224.5418358785123L911.282399711609,203.48609942419233L925.7471997070313,304.7163754126037L940.2119997024537,184.17720364462429L954.676799697876,186.4371234249411L969.1415996932984,114.48661804786116L983.6063996887208,224.06026492389898L998.071199684143,212.6717423232044L1012.5359996795654,170.57106416340093L1027.0007996749878,-30.16752199468442L1041.46559967041,345.2641741963135L1055.9303996658325,181.27648254207497L1070.3951996612548,262.3955782439181L1084.8599996566772,289.65660566632766L1099.3247996520997,138.03694273546392L1113.789599647522,97.83879994667353L1128.2543996429445,278.1539716192375L1142.7191996383667,59.30824247378666L1157.1839996337892,110.62084639933437L1171.6487996292115,295.4954383782656L1186.1135996246337,127.13656180606569L1200.5783996200562,284.3558520724773L1215.0431996154784,219.6209009980692L1229.507999610901,103.07165613479901L1243.9727996063232,-66.59651395931587L1258.4375996017457,256.49219606285106L1272.902399597168,271.10396808785146L1287.3671995925904,327.37108012718L1301.8319995880126,261.18756762630323L1316.2967995834351,321.98293600144507L1330.7615995788574,189.52720632447046" fill="none"></path></g></g></g></g></g></g><g transform="translate(51, 377)" clip-path="url(#clip_1)"><clipPath id="clip_1"><rect width="1446" height="22"></rect></clipPath><g><g><line x1="0" y1="0" x2="0" y2="5" style="visibility: inherit;" fill="rgb(0, 0, 0)" stroke="rgb(204, 204, 204)" stroke-width="1px"></line><line x1="144.64799995422365" y1="0" x2="144.64799995422365" y2="5" style="visibility: inherit;" fill="rgb(0, 0, 0)" stroke="rgb(204, 204, 204)" stroke-width="1px"></line><line x1="289.2959999084473" y1="0" x2="289.2959999084473" y2="5" style="visibility: inherit;" fill="rgb(0, 0, 0)" stroke="rgb(204, 204, 204)" stroke-width="1px"></line><line x1="433.94399986267086" y1="0" x2="433.94399986267086" y2="5" style="visibility: inherit;" fill="rgb(0, 0, 0)" stroke="rgb(204, 204, 204)" stroke-width="1px"></line><line x1="578.5919998168946" y1="0" x2="578.5919998168946" y2="5" style="visibility: inherit;" fill="rgb(0, 0, 0)" stroke="rgb(204, 204, 204)" stroke-width="1px"></line><line x1="723.2399997711182" y1="0" x2="723.2399997711182" y2="5" style="visibility: inherit;" fill="rgb(0, 0, 0)" stroke="rgb(204, 204, 204)" stroke-width="1px"></line><line x1="867.8879997253417" y1="0" x2="867.8879997253417" y2="5" style="visibility: inherit;" fill="rgb(0, 0, 0)" stroke="rgb(204, 204, 204)" stroke-width="1px"></line><line x1="1012.5359996795654" y1="0" x2="1012.5359996795654" y2="5" style="visibility: inherit;" fill="rgb(0, 0, 0)" stroke="rgb(204, 204, 204)" stroke-width="1px"></line><line x1="1157.1839996337892" y1="0" x2="1157.1839996337892" y2="5" style="visibility: inherit;" fill="rgb(0, 0, 0)" stroke="rgb(204, 204, 204)" stroke-width="1px"></line><line x1="1301.8319995880126" y1="0" x2="1301.8319995880126" y2="5" style="visibility: inherit;" fill="rgb(0, 0, 0)" stroke="rgb(204, 204, 204)" stroke-width="1px"></line><line x1="1446.4799995422363" y1="0" x2="1446.4799995422363" y2="5" style="visibility: inherit;" fill="rgb(0, 0, 0)" stroke="rgb(204, 204, 204)" stroke-width="1px"></line></g><g transform="translate(0, 8)"><text style="text-anchor: middle; visibility: hidden; font-family: &quot;Helvetica Neue&quot;, sans-serif; font-size: 12px; font-weight: 200;" x="0" y="0" dx="0em" dy="0.95em" fill="rgb(50, 49, 63)" stroke="none" stroke-width="1px">1.001M</text><text style="text-anchor: middle; visibility: inherit; font-family: &quot;Helvetica Neue&quot;, sans-serif; font-size: 12px; font-weight: 200;" x="144.64799995422365" y="0" dx="0em" dy="0.95em" fill="rgb(50, 49, 63)" stroke="none" stroke-width="1px">1.002M</text><text style="text-anchor: middle; visibility: inherit; font-family: &quot;Helvetica Neue&quot;, sans-serif; font-size: 12px; font-weight: 200;" x="289.2959999084473" y="0" dx="0em" dy="0.95em" fill="rgb(50, 49, 63)" stroke="none" stroke-width="1px">1.003M</text><text style="text-anchor: middle; visibility: inherit; font-family: &quot;Helvetica Neue&quot;, sans-serif; font-size: 12px; font-weight: 200;" x="433.94399986267086" y="0" dx="0em" dy="0.95em" fill="rgb(50, 49, 63)" stroke="none" stroke-width="1px">1.004M</text><text style="text-anchor: middle; visibility: inherit; font-family: &quot;Helvetica Neue&quot;, sans-serif; font-size: 12px; font-weight: 200;" x="578.5919998168946" y="0" dx="0em" dy="0.95em" fill="rgb(50, 49, 63)" stroke="none" stroke-width="1px">1.005M</text><text style="text-anchor: middle; visibility: inherit; font-family: &quot;Helvetica Neue&quot;, sans-serif; font-size: 12px; font-weight: 200;" x="723.2399997711182" y="0" dx="0em" dy="0.95em" fill="rgb(50, 49, 63)" stroke="none" stroke-width="1px">1.006M</text><text style="text-anchor: middle; visibility: inherit; font-family: &quot;Helvetica Neue&quot;, sans-serif; font-size: 12px; font-weight: 200;" x="867.8879997253417" y="0" dx="0em" dy="0.95em" fill="rgb(50, 49, 63)" stroke="none" stroke-width="1px">1.007M</text><text style="text-anchor: middle; visibility: inherit; font-family: &quot;Helvetica Neue&quot;, sans-serif; font-size: 12px; font-weight: 200;" x="1012.5359996795654" y="0" dx="0em" dy="0.95em" fill="rgb(50, 49, 63)" stroke="none" stroke-width="1px">1.008M</text><text style="text-anchor: middle; visibility: inherit; font-family: &quot;Helvetica Neue&quot;, sans-serif; font-size: 12px; font-weight: 200;" x="1157.1839996337892" y="0" dx="0em" dy="0.95em" fill="rgb(50, 49, 63)" stroke="none" stroke-width="1px">1.009M</text><text style="text-anchor: middle; visibility: inherit; font-family: &quot;Helvetica Neue&quot;, sans-serif; font-size: 12px; font-weight: 200;" x="1301.8319995880126" y="0" dx="0em" dy="0.95em" fill="rgb(50, 49, 63)" stroke="none" stroke-width="1px">1.01M</text><text style="text-anchor: middle; visibility: hidden; font-family: &quot;Helvetica Neue&quot;, sans-serif; font-size: 12px; font-weight: 200;" x="1446.4799995422363" y="0" dx="0em" dy="0.95em" fill="rgb(50, 49, 63)" stroke="none" stroke-width="1px">1.011M</text></g><line x1="0" y1="0" x2="1446.4799995422363" y2="0" fill="rgb(0, 0, 0)" stroke="rgb(204, 204, 204)" stroke-width="1px"></line></g></g></g></g></svg>