<svg viewBox="0 0 1498 400" xmlns="http://www.w3.org/2000/svg"><g><g><g><g><g><line x1="51.52000045776367" y1="340.1639991760254" x2="46.52000045776367" y2="340.1639991760254" style="visibility: inherit;" fill="rgb(0, 0, 0)" stroke="rgb(204, 204, 204)" stroke-width="1px"></line><line x1="51.52000045776367" y1="302.36799926757817" x2="46.52000045776367" y2="302.36799926757817" style="visibility: inherit;" fill="rgb(0, 0, 0)" stroke="rgb(204, 204, 204)" stroke-width="1px"></line><line x1="51.52000045776367" y1="264.57199935913087" x2="46.52000045776367" y2="264.57199935913087" style="visibility: inherit;" fill="rgb(0, 0, 0)" stroke="rgb(204, 204, 204)" stroke-width="1px"></line><line x1="51.52000045776367" y1="226.77599945068363" x2="46.52000045776367" y2="226.77599945068363" style="visibility: inherit;" fill="rgb(0, 0, 0)" stroke="rgb(204, 204, 204)" stroke-width="1px"></line><line x1="51.52000045776367" y1="188.97999954223636" x2="46.52000045776367" y2="188.97999954223636" style="visibility: inherit;" fill="rgb(0, 0, 0)" stroke="rgb(204, 204, 204)" stroke-width="1px"></line><line x1="51.52000045776367" y1="151.18399963378906" x2="46.52000045776367" y2="151.18399963378906" style="visibility: inherit;" fill="rgb(0, 0, 0)" stroke="rgb(204, 204, 204)" stroke-width="1px"></line><line x1="51.52000045776367" y1="113.38799972534179" x2="46.52000045776367" y2="113.38799972534179" style="visibility: inherit;" fill="rgb(0, 0, 0)" stroke="rgb(204, 204, 204)" stroke-width="1px"></line><line x1="51.52000045776367" y1="75.5919998168946" x2="46.52000045776367" y2="75.5919998168946" style="visibility: inherit;" fill="rgb(0, 0, 0)" stroke="rgb(204, 204, 204)" stroke-width="1px"></line><line x1="51.52000045776367" y1="37.7959999084473" x2="46.52000045776367" y2="37.7959999084473" style="visibility: inherit;" fill="rgb(0, 0, 0)" stroke="rgb(204, 204, 204)" stroke-width="1px"></line><line x1="51.52000045776367" y1="0" x2="46.52000045776367" y2="0" style="visibility: inherit;" fill="rgb(0, 0, 0)" stroke="rgb(204, 204, 204)" stroke-width="1px"></line></g><g transform="translate(41.52000045776367, 0)"><text style="text-anchor: end; visibility: inherit; font-family: &quot;Helvetica Neue&quot;, sans-serif; font-size: 12px; font-weight: 200;" x="0" y="340.1639991760254" dx="0em" dy="0.3em" fill="rgb(50, 49, 63)" stroke="none" stroke-width="1px">0.16</text><text style="text-anchor: end; visibility: inherit; font-family: &quot;Helvetica Neue&quot;, sans-serif; font-size: 12px; font-weight: 200;" x="0" y="302.36799926757817" dx="0em" dy="0.3em" fill="rgb(50, 49, 63)" stroke="none" stroke-width="1px">0.18</text><text style="text-anchor: end; visibility: inherit; font-family: &quot;Helvetica Neue&quot;, sans-serif; font-size: 12px; font-weight: 200;" x="0" y="264.57199935913087" dx="0em" dy="0.3em" fill="rgb(50, 49, 63)" stroke="none" stroke-width="1px">0.2</text><text style="text-anchor: end; visibility: inherit; font-family: &quot;Helvetica Neue&quot;, sans-serif; font-size: 12px; font-weight: 200;" x="0" y="226.77599945068363" dx="0em" dy="0.3em" fill="rgb(50, 49, 63)" stroke="none" stroke-width="1px">0.22</text><text style="text-anchor: end; visibility: inherit; font-family: &quot;Helvetica Neue&quot;, sans-serif; font-size: 12px; font-weight: 200;" x="0" y="188.97999954223636" dx="0em" dy="0.3em" fill="rgb(50, 49, 63)" stroke="none" stroke-width="1px">0.24</text><text style="text-anchor: end; visibility: inherit; font-family: &quot;Helvetica Neue&quot;, sans-serif; font-size: 12px; font-weight: 200;" x="0" y="151.18399963378906" dx="0em" dy="0.3em" fill="rgb(50, 49, 63)" stroke="none" stroke-width="1px">0.26</text><text style="text-anchor: end; visibility: inherit; font-family: &quot;Helvetica Neue&quot;, sans-serif; font-size: 12px; font-weight: 200;" x="0" y="113.38799972534179" dx="0em" dy="0.3em" fill="rgb(50, 49, 63)" stroke="none" stroke-width="1px">0.28</text><text style="text-anchor: end; visibility: inherit; font-family: &quot;Helvetica Neue&quot;, sans-serif; font-size: 12px; font-weight: 200;" x="0" y="75.5919998168946" dx="0em" dy="0.3em" fill="rgb(50, 49, 63)" stroke="none" stroke-width="1px">0.3</text><text style="text-anchor: end; visibility: inherit; font-family: &quot;Helvetica Neue&quot;, sans-serif; font-size: 12px; font-weight: 200;" x="0" y="37.7959999084473" dx="0em" dy="0.3em" fill="rgb(50, 49, 63)" stroke="none" stroke-width="1px">0.32</text><text style="text-anchor: end; visibility: hidden; font-family: &quot;Helvetica Neue&quot;, sans-serif; font-size: 12px; font-weight: 200;" x="0" y="0" dx="0em" dy="0.3em" fill="rgb(50, 49, 63)" stroke="none" stroke-width="1px">0.34</text></g><line x1="51.52000045776367" y1="0" x2="51.52000045776367" y2="377.95999908447266" fill="rgb(0, 0, 0)" stroke="rgb(204, 204, 204)" stroke-width="1px"></line></g></g><g transform="translate(51, 0)" clip-path="url(#clip_0)"><clipPath id="clip_0"><rect width="1446" height="377"></rect></clipPath><g><g><g><line x1="0" y1="0" x2="0" y2="377.95999908447266" fill="rgb(0, 0, 0)" stroke="rgb(60, 60, 60)" stroke-width="1px" opacity="0.25"></line><line x1="144.64799995422365" y1="0" x2="144.64799995422365" y2="377.95999908447266" fill="rgb(0, 0, 0)" stroke="rgb(60, 60, 60)" stroke-width="1px" opacity="0.25"></line><line x1="289.2959999084473" y1="0" x2="289.2959999084473" y2="377.95999908447266" fill="rgb(0, 0, 0)" stroke="rgb(60, 60, 60)" stroke-width="1px" opacity="0.25"></line><line x1="433.94399986267086" y1="0" x2="433.94399986267086" y2="377.95999908447266" fill="rgb(0, 0, 0)" stroke="rgb(60, 60, 60)" stroke-width="1px" opacity="0.25"></line><line x1="578.5919998168946" y1="0" x2="578.5919998168946" y2="377.95999908447266" fill="rgb(0, 0, 0)" stroke="rgb(60, 60, 60)" stroke-width="1px" opacity="0.25"></line><line x1="723.2399997711182" y1="0" x2="723.2399997711182" y2="377.95999908447266" fill="rgb(0, 0, 0)" stroke="rgb(60, 60, 60)" stroke-width="1px" opacity="0.25"></line><line x1="867.8879997253417" y1="0" x2="867.8879997253417" y2="377.95999908447266" fill="rgb(0, 0, 0)" stroke="rgb(60, 60, 60)" stroke-width="1px" opacity="0.25"></line><line x1="1012.5359996795654" y1="0" x2="1012.5359996795654" y2="377.95999908447266" fill="rgb(0, 0, 0)" stroke="rgb(60, 60, 60)" stroke-width="1px" opacity="0.25"></line><line x1="1157.1839996337892" y1="0" x2="1157.1839996337892" y2="377.95999908447266" fill="rgb(0, 0, 0)" stroke="rgb(60, 60, 60)" stroke-width="1px" opacity="0.25"></line><line x1="1301.8319995880126" y1="0" x2="1301.8319995880126" y2="377.95999908447266" fill="rgb(0, 0, 0)" stroke="rgb(60, 60, 60)" stroke-width="1px" opacity="0.25"></line><line x1="1446.4799995422363" y1="0" x2="1446.4799995422363" y2="377.95999908447266" fill="rgb(0, 0, 0)" stroke="rgb(60, 60, 60)" stroke-width="1px" opacity="0.25"></line></g><g><line x1="0" y1="340.1639991760254" x2="1446.4799995422363" y2="340.1639991760254" fill="rgb(0, 0, 0)" stroke="rgb(60, 60, 60)" stroke-width="1px" opacity="0.25"></line><line x1="0" y1="302.36799926757817" x2="1446.4799995422363" y2="302.36799926757817" fill="rgb(0, 0, 0)" stroke="rgb(60, 60, 60)" stroke-width="1px" opacity="0.25"></line><line x1="0" y1="264.57199935913087" x2="1446.4799995422363" y2="264.57199935913087" fill="rgb(0, 0, 0)" stroke="rgb(60, 60, 60)" stroke-width="1px" opacity="0.25"></line><line x1="0" y1="226.77599945068363" x2="1446.4799995422363" y2="226.77599945068363" fill="rgb(0, 0, 0)" stroke="rgb(60, 60, 60)" stroke-width="1px" opacity="0.25"></line><line x1="0" y1="188.97999954223636" x2="1446.4799995422363" y2="188.97999954223636" fill="rgb(0, 0, 0)" stroke="rgb(60, 60, 60)" stroke-width="1px" opacity="0.25"></line><line x1="0" y1="151.18399963378906" x2="1446.4799995422363" y2="151.18399963378906" fill="rgb(0, 0, 0)" stroke="rgb(60, 60, 60)" stroke-width="1px" opacity="0.25"></line><line x1="0" y1="113.38799972534179" x2="1446.4799995422363" y2="113.38799972534179" fill="rgb(0, 0, 0)" stroke="rgb(60, 60, 60)" stroke-width="1px" opacity="0.25"></line><line x1="0" y1="75.5919998168946" x2="1446.4799995422363" y2="75.5919998168946" fill="rgb(0, 0, 0)" stroke="rgb(60, 60, 60)" stroke-width="1px" opacity="0.25"></line><line x1="0" y1="37.7959999084473" x2="1446.4799995422363" y2="37.7959999084473" fill="rgb(0, 0, 0)" stroke="rgb(60, 60, 60)" stroke-width="1px" opacity="0.25"></line><line x1="0" y1="0" x2="1446.4799995422363" y2="0" fill="rgb(0, 0, 0)" stroke="rgb(60, 60, 60)" stroke-width="1px" opacity="0.25"></line></g></g></g><g><g><line x1="0" y1="642.5319984436035" x2="1446.4799995422363" y2="642.5319984436035" fill="rgb(0, 0, 0)" stroke="rgb(153, 153, 153)" stroke-width="1.5px"></line></g></g><g><g><line x1="-144792.64795417784" y1="0" x2="-144792.64795417784" y2="377.95999908447266" fill="rgb(0, 0, 0)" stroke="rgb(153, 153, 153)" stroke-width="1.5px"></line></g></g><g><g><g><g><g><path style="fill: none;" stroke="rgb(255, 112, 67)" stroke-width="2px" d="M159.112799949646,117.06673523512478L173.57759994506836,68.25353806842742L188.04239994049072,66.50855303047649L202.5071999359131,113.21447278224076L216.97199993133543,146.4638013143744L231.43679992675783,151.74781196950423L245.9015999221802,133.71455876116758L260.3663999176025,132.51581342201268L274.83119991302493,124.17493781493692L289.2959999084473,134.96970134629294L303.7607999038696,176.5621726802012L318.225599899292,166.04796077132892L332.69039989471435,138.64225363147554L347.1551998901367,205.87802456255366L361.6199998855591,191.85572127243577L376.08479988098145,209.81153050783828L390.5495998764038,193.42799352049252L405.0143998718262,212.10536417441116L419.4791998672485,233.53548228233268L433.94399986267086,260.5474034223169L448.40879985809323,249.61333632960526L462.87359985351566,217.9135434002604L477.338399848938,230.7817318891167L491.8031998443604,278.69662156959845L506.2679998397827,272.39271463586033L520.732799835205,247.87424607431007L535.1975998306274,213.73333355032824L549.6623998260499,253.40274655987704L564.1271998214722,246.91183929810882L578.5919998168946,191.46734310849828L593.0567998123169,185.45732257296592L607.5215998077392,190.74939853037557L621.9863998031616,228.26100309970064L636.451199798584,233.42193673572103L650.9159997940063,181.54730188425472L665.3807997894287,210.9127351963195L679.8455997848511,179.25229540701775L694.3103997802734,218.47961798573232L708.7751997756958,212.3287474417562L708.7751997756958,261.20143925827983L723.2399997711182,246.77552547330598L737.7047997665405,242.27245989247757L752.1695997619629,251.79308849848286L766.6343997573853,204.64270575514666L781.0991997528076,163.49988394293658L795.56399974823,190.82015933970544L810.0287997436524,198.54912749598228L824.4935997390746,177.24465434324742L838.958399734497,211.30982120299836L853.4231997299194,246.98564734883684L867.8879997253417,260.13399371858645L882.3527997207641,257.8238449922522L896.8175997161865,240.21343974472123L911.282399711609,243.8464778013521L925.7471997070313,242.80580840889704L940.2119997024537,205.4560829957641L954.676799697876,163.5252267056206L969.1415996932984,163.0905250655262L983.6063996887208,195.85622875981164L998.071199684143,201.90506468441907L1012.5359996795654,198.39901848482236L1027.0007996749878,177.9985618253622L1041.46559967041,200.25269184154254L1055.9303996658325,199.22375964376744L1070.3951996612548,204.08642309510745L1084.8599996566772,235.60735339085184L1099.3247996520997,212.2903359722148L1113.789599647522,181.496418730996L1128.2543996429445,186.38795493492378L1142.7191996383667,173.40938182754894L1157.1839996337892,213.2061066041566L1171.6487996292115,219.50535294015228L1186.1135996246337,214.20048317504387L1200.5783996200562,235.90222459436234L1215.0431996154784,219.37442986379867L1229.507999610901,173.64505673874643L1243.9727996063232,179.40137564844315L1258.4375996017457,191.8032665953127L1272.902399597168,211.9095138904388L1287.3671995925904,259.54871438032274L1301.8319995880126,258.2421496145334L1316.2967995834351,287.5814060692178L1330.7615995788574,295.8211817848262" fill="none"></path></g></g></g></g><g opacity="0.2"><g><g><g><path style="fill: none;" stroke="rgb(255, 112, 67)" stroke-width="2px" d="M159.112799949646,117.06673523512478L173.57759994506836,38.965619768409L188.04239994049072,64.83336739404336L202.5071999359131,168.1406344103155L216.97199993133543,189.87412464592836L231.43679992675783,159.0575009493844L245.9015999221802,107.92671814119473L260.3663999176025,130.76803120956953L274.83119991302493,111.87376642617807L289.2959999084473,150.9986671254356L303.7607999038696,238.57363902727087L318.225599899292,150.333860784921L332.69039989471435,97.62317731050672L347.1551998901367,306.5999590845118L361.6199998855591,170.83874902839938L376.08479988098145,236.73258053310946L390.5495998764038,168.85962100325088L405.0143998718262,240.11667797290357L419.4791998672485,265.67739478141533L433.94399986267086,301.062816135707L448.40879985809323,233.21283534076287L462.87359985351566,170.3648971014323L477.338399848938,250.08376056246703L491.8031998443604,350.5683884927734L506.2679998397827,262.9368990407258L520.732799835205,211.09664779205303L535.1975998306274,162.5220521215934L549.6623998260499,312.906805172307L564.1271998214722,237.17548438449938L578.5919998168946,108.30062946741265L593.0567998123169,176.44229376265542L607.5215998077392,198.6875114135441L621.9863998031616,284.5284054755561L636.451199798584,241.16333682008445L650.9159997940063,103.73535183645942L665.3807997894287,254.96088440719774L679.8455997848511,131.76163621290385L694.3103997802734,277.3206014896576L708.7751997756958,203.10244166005106L708.7751997756958,334.51047681973904L723.2399997711182,225.1366548247708L737.7047997665405,235.51786152665244L752.1695997619629,266.0740314006185L766.6343997573853,133.91713166056348L781.0991997528076,101.78565123531286L795.56399974823,231.80057243059906L810.0287997436524,210.14257972967442L824.4935997390746,145.2879446153409L838.958399734497,262.40757149147754L853.4231997299194,300.49938656687374L867.8879997253417,279.85651327305135L882.3527997207641,254.35862190276765L896.8175997161865,213.7978318735017L911.282399711609,249.29603488628885L925.7471997070313,241.24480432021613L940.2119997024537,149.43149487609986L954.676799697876,100.62894227042904L969.1415996932984,162.43847260538502L983.6063996887208,245.0047843012331L998.071199684143,210.97831857132945L1012.5359996795654,193.1399491854276L1027.0007996749878,147.39787683617266L1041.46559967041,233.6338868658126L1055.9303996658325,197.68036134710457L1070.3951996612548,211.38041827211765L1084.8599996566772,282.88874883446823L1099.3247996520997,177.3148098442593L1113.789599647522,135.30554286916782L1128.2543996429445,193.72525924081543L1142.7191996383667,153.94152216648678L1157.1839996337892,272.901193769068L1171.6487996292115,228.9542224441456L1186.1135996246337,206.2431785273813L1200.5783996200562,268.45483672333984L1215.0431996154784,194.58273776795323L1229.507999610901,105.05099705116805L1243.9727996063232,188.03585401298818L1258.4375996017457,210.40610301561713L1272.902399597168,242.0688848331278L1287.3671995925904,331.0075151151486L1301.8319995880126,256.28230246584934L1316.2967995834351,331.59029075124437L1330.7615995788574,308.18084535823886" fill="none"></path></g></g></g></g></g></g><g transform="translate(51, 377)" clip-path="url(#clip_1)"><clipPath id="clip_1"><rect width="1446" height="22"></rect></clipPath><g><g><line x1="0" y1="0" x2="0" y2="5" style="visibility: inherit;" fill="rgb(0, 0, 0)" stroke="rgb(204, 204, 204)" stroke-width="1px"></line><line x1="144.64799995422365" y1="0" x2="144.64799995422365" y2="5" style="visibility: inherit;" fill="rgb(0, 0, 0)" stroke="rgb(204, 204, 204)" stroke-width="1px"></line><line x1="289.2959999084473" y1="0" x2="289.2959999084473" y2="5" style="visibility: inherit;" fill="rgb(0, 0, 0)" stroke="rgb(204, 204, 204)" stroke-width="1px"></line><line x1="433.94399986267086" y1="0" x2="433.94399986267086" y2="5" style="visibility: inherit;" fill="rgb(0, 0, 0)" stroke="rgb(204, 204, 204)" stroke-width="1px"></line><line x1="578.5919998168946" y1="0" x2="578.5919998168946" y2="5" style="visibility: inherit;" fill="rgb(0, 0, 0)" stroke="rgb(204, 204, 204)" stroke-width="1px"></line><line x1="723.2399997711182" y1="0" x2="723.2399997711182" y2="5" style="visibility: inherit;" fill="rgb(0, 0, 0)" stroke="rgb(204, 204, 204)" stroke-width="1px"></line><line x1="867.8879997253417" y1="0" x2="867.8879997253417" y2="5" style="visibility: inherit;" fill="rgb(0, 0, 0)" stroke="rgb(204, 204, 204)" stroke-width="1px"></line><line x1="1012.5359996795654" y1="0" x2="1012.5359996795654" y2="5" style="visibility: inherit;" fill="rgb(0, 0, 0)" stroke="rgb(204, 204, 204)" stroke-width="1px"></line><line x1="1157.1839996337892" y1="0" x2="1157.1839996337892" y2="5" style="visibility: inherit;" fill="rgb(0, 0, 0)" stroke="rgb(204, 204, 204)" stroke-width="1px"></line><line x1="1301.8319995880126" y1="0" x2="1301.8319995880126" y2="5" style="visibility: inherit;" fill="rgb(0, 0, 0)" stroke="rgb(204, 204, 204)" stroke-width="1px"></line><line x1="1446.4799995422363" y1="0" x2="1446.4799995422363" y2="5" style="visibility: inherit;" fill="rgb(0, 0, 0)" stroke="rgb(204, 204, 204)" stroke-width="1px"></line></g><g transform="translate(0, 8)"><text style="text-anchor: middle; visibility: hidden; font-family: &quot;Helvetica Neue&quot;, sans-serif; font-size: 12px; font-weight: 200;" x="0" y="0" dx="0em" dy="0.95em" fill="rgb(50, 49, 63)" stroke="none" stroke-width="1px">1.001M</text><text style="text-anchor: middle; visibility: inherit; font-family: &quot;Helvetica Neue&quot;, sans-serif; font-size: 12px; font-weight: 200;" x="144.64799995422365" y="0" dx="0em" dy="0.95em" fill="rgb(50, 49, 63)" stroke="none" stroke-width="1px">1.002M</text><text style="text-anchor: middle; visibility: inherit; font-family: &quot;Helvetica Neue&quot;, sans-serif; font-size: 12px; font-weight: 200;" x="289.2959999084473" y="0" dx="0em" dy="0.95em" fill="rgb(50, 49, 63)" stroke="none" stroke-width="1px">1.003M</text><text style="text-anchor: middle; visibility: inherit; font-family: &quot;Helvetica Neue&quot;, sans-serif; font-size: 12px; font-weight: 200;" x="433.94399986267086" y="0" dx="0em" dy="0.95em" fill="rgb(50, 49, 63)" stroke="none" stroke-width="1px">1.004M</text><text style="text-anchor: middle; visibility: inherit; font-family: &quot;Helvetica Neue&quot;, sans-serif; font-size: 12px; font-weight: 200;" x="578.5919998168946" y="0" dx="0em" dy="0.95em" fill="rgb(50, 49, 63)" stroke="none" stroke-width="1px">1.005M</text><text style="text-anchor: middle; visibility: inherit; font-family: &quot;Helvetica Neue&quot;, sans-serif; font-size: 12px; font-weight: 200;" x="723.2399997711182" y="0" dx="0em" dy="0.95em" fill="rgb(50, 49, 63)" stroke="none" stroke-width="1px">1.006M</text><text style="text-anchor: middle; visibility: inherit; font-family: &quot;Helvetica Neue&quot;, sans-serif; font-size: 12px; font-weight: 200;" x="867.8879997253417" y="0" dx="0em" dy="0.95em" fill="rgb(50, 49, 63)" stroke="none" stroke-width="1px">1.007M</text><text style="text-anchor: middle; visibility: inherit; font-family: &quot;Helvetica Neue&quot;, sans-serif; font-size: 12px; font-weight: 200;" x="1012.5359996795654" y="0" dx="0em" dy="0.95em" fill="rgb(50, 49, 63)" stroke="none" stroke-width="1px">1.008M</text><text style="text-anchor: middle; visibility: inherit; font-family: &quot;Helvetica Neue&quot;, sans-serif; font-size: 12px; font-weight: 200;" x="1157.1839996337892" y="0" dx="0em" dy="0.95em" fill="rgb(50, 49, 63)" stroke="none" stroke-width="1px">1.009M</text><text style="text-anchor: middle; visibility: inherit; font-family: &quot;Helvetica Neue&quot;, sans-serif; font-size: 12px; font-weight: 200;" x="1301.8319995880126" y="0" dx="0em" dy="0.95em" fill="rgb(50, 49, 63)" stroke="none" stroke-width="1px">1.01M</text><text style="text-anchor: middle; visibility: hidden; font-family: &quot;Helvetica Neue&quot;, sans-serif; font-size: 12px; font-weight: 200;" x="1446.4799995422363" y="0" dx="0em" dy="0.95em" fill="rgb(50, 49, 63)" stroke="none" stroke-width="1px">1.011M</text></g><line x1="0" y1="0" x2="1446.4799995422363" y2="0" fill="rgb(0, 0, 0)" stroke="rgb(204, 204, 204)" stroke-width="1px"></line></g></g></g></g></svg>